<svg width="20" height="21" viewBox="0 0 20 21" fill="none" xmlns="http://www.w3.org/2000/svg">
<path fill-rule="evenodd" clip-rule="evenodd" d="M10.718 9.9994H19.282C19.6784 9.9994 20 10.3254 20 10.7271C20 11.1288 19.6784 11.4548 19.282 11.4548H10.718V20.1347C10.718 20.5364 10.3963 20.8624 10 20.8624C9.60367 20.8624 9.28202 20.5364 9.28202 20.1347V11.4548H0.717978C0.321646 11.4548 0 11.1288 0 10.7271C0 10.3254 0.321646 9.9994 0.717978 9.9994H9.28202V1.31949C9.28202 0.917795 9.60367 0.591797 10 0.591797C10.3963 0.591797 10.718 0.917795 10.718 1.31949V9.9994Z" fill="#F00000"/>
</svg>
